<svg xmlns="http://www.w3.org/2000/svg" width="77" height="77" viewBox="0 0 77 77" fill="none">
  <circle cx="38.5" cy="38.5" r="37.5" stroke="white" stroke-width="2"/>
  <path d="M50.094 42.0418C52.694 42.0418 54.8 44.091 54.8 46.6208V48.3638H54.787C54.6986 50.3371 54.1422 52.8087 51.8672 54.8275C49.3816 57.036 45.089 58.478 37.9 58.478C30.7084 58.478 26.4184 57.036 23.9328 54.8275C21.6578 52.8087 21.1014 50.3345 21.013 48.3638H21V46.6183C21 44.091 23.106 42.0418 25.706 42.0418H50.094ZM28.8 20.5309C27.7657 20.5309 26.7737 20.9307 26.0423 21.6424C25.3109 22.354 24.9 23.3192 24.9 24.3256V34.4448C24.9 35.4513 25.3109 36.4165 26.0423 37.1281C26.7737 37.8398 27.7657 38.2395 28.8 38.2395H47C48.0343 38.2395 49.0263 37.8398 49.7577 37.1281C50.4891 36.4165 50.9 35.4513 50.9 34.4448V24.3256C50.9 23.3192 50.4891 22.354 49.7577 21.6424C49.0263 20.9307 48.0343 20.5309 47 20.5309H39.2V19.266C39.2074 19.098 39.1788 18.9303 39.116 18.7736C39.0533 18.6169 38.9578 18.4746 38.8356 18.3557C38.7134 18.2367 38.5671 18.1438 38.4061 18.0828C38.245 18.0218 38.0727 17.9939 37.9 18.0011C37.1824 18.0011 36.6 18.583 36.6 19.266V20.5309H28.8ZM30.1 29.3852C30.1 28.7143 30.3739 28.0708 30.8615 27.5964C31.3491 27.122 32.0104 26.8554 32.7 26.8554C33.3896 26.8554 34.0509 27.122 34.5385 27.5964C35.0261 28.0708 35.3 28.7143 35.3 29.3852C35.3 30.0562 35.0261 30.6996 34.5385 31.1741C34.0509 31.6485 33.3896 31.915 32.7 31.915C32.0104 31.915 31.3491 31.6485 30.8615 31.1741C30.3739 30.6996 30.1 30.0562 30.1 29.3852ZM40.5 29.3852C40.5 28.7143 40.7739 28.0708 41.2615 27.5964C41.7491 27.122 42.4104 26.8554 43.1 26.8554C43.7896 26.8554 44.4509 27.122 44.9385 27.5964C45.4261 28.0708 45.7 28.7143 45.7 29.3852C45.7 30.0562 45.4261 30.6996 44.9385 31.1741C44.4509 31.6485 43.7896 31.915 43.1 31.915C42.4104 31.915 41.7491 31.6485 41.2615 31.1741C40.7739 30.6996 40.5 30.0562 40.5 29.3852Z" fill="white"/>
</svg>