<svg xmlns="http://www.w3.org/2000/svg" width="26" height="26" viewBox="0 0 26 26" fill="none">
  <path d="M26 7.618C26 8.77933 25.7937 9.90167 25.381 10.985C24.9683 12.0683 24.3959 13.0173 23.664 13.832L13.1986 25.376L11.7502 23.79L22.2156 12.246C23.3681 10.998 23.9443 9.45533 23.9443 7.618C23.9443 6.07533 23.4888 4.797 22.5777 3.783C21.6667 2.769 20.5181 2.262 19.1321 2.262C17.5436 2.262 16.142 2.912 14.9272 4.212L3.4106 16.926C2.49176 17.9487 2.03235 19.1013 2.03235 20.384C2.03235 21.372 2.32046 22.1823 2.89668 22.815C3.4729 23.4477 4.20485 23.764 5.09254 23.764C6.26056 23.764 7.30398 23.2527 8.22282 22.23L17.0296 12.558C17.855 11.6047 18.2677 10.764 18.2677 10.036C18.2677 9.672 18.1432 9.386 17.894 9.178C17.6448 8.97 17.3489 8.866 17.0063 8.866C16.2588 8.866 15.5891 9.21267 14.9973 9.906L7.05481 18.642L5.62983 17.056L13.549 8.32C14.5768 7.176 15.7293 6.604 17.0063 6.604C17.9096 6.604 18.6882 6.92467 19.3423 7.566C19.9964 8.20733 20.3235 9.022 20.3235 10.01C20.3235 11.362 19.7083 12.74 18.478 14.144L9.67116 23.816C8.36298 25.272 6.83678 26 5.09254 26C3.6442 26 2.43336 25.467 1.46002 24.401C0.486673 23.335 0 21.996 0 20.384C0 18.4773 0.654088 16.796 1.96226 15.34L13.4789 2.626C15.0985 0.875333 16.9829 0 19.1321 0C21.0788 0 22.7101 0.728 24.0261 2.184C25.342 3.64 26 5.45133 26 7.618Z" fill="#9E9E9E"/>
</svg>