<svg xmlns="http://www.w3.org/2000/svg" width="28" height="28" viewBox="0 0 28 28" fill="none">
  <g clip-path="url(#clip0_1_20)">
    <path d="M14 0.875C6.75128 0.875 0.875 6.75128 0.875 14C0.875 21.2487 6.75128 27.125 14 27.125C21.2487 27.125 27.125 21.2487 27.125 14C27.125 6.75128 21.2487 0.875 14 0.875ZM22.0433 22.0433C20.0489 24.0318 17.3856 25.2065 14.5723 25.3386C11.7591 25.4706 8.99745 24.5506 6.82551 22.7577C4.65357 20.9648 3.22693 18.4275 2.82356 15.6402C2.4202 12.8529 3.06901 10.0153 4.64358 7.68019C6.21815 5.34512 8.60567 3.67991 11.3409 3.00903C14.0762 2.33814 16.9633 2.70964 19.4396 4.05114C21.9159 5.39263 23.8041 7.60803 24.7362 10.2656C25.6684 12.9233 25.5777 15.8327 24.4818 18.4271C23.9107 19.779 23.0825 21.0071 22.0433 22.0433Z" fill="#9E9E9E"/>
    <path d="M8.3125 10.9375H10.5V13.125H8.3125V10.9375ZM17.5 10.9375H19.6875V13.125H17.5V10.9375ZM18.5002 16.8C18.1617 17.6541 17.5737 18.3864 16.813 18.9015C16.0522 19.4166 15.1539 19.6905 14.2352 19.6875H13.7648C12.8461 19.6905 11.9477 19.4166 11.1869 18.9015C10.4261 18.3865 9.83814 17.6541 9.49965 16.8L9.42971 16.625H7.54512L7.875 17.4497C8.34585 18.6269 9.15862 19.6359 10.2085 20.3467C11.2583 21.0575 12.497 21.4375 13.7648 21.4375H14.2352C15.503 21.4375 16.7417 21.0575 17.7915 20.3467C18.8414 19.6359 19.6541 18.6269 20.125 17.4497L20.4549 16.625H18.5701L18.5002 16.8Z" fill="#9E9E9E"/>
  </g>
  <defs>
    <clipPath id="clip0_1_20">
      <rect width="28" height="28" fill="white"/>
    </clipPath>
  </defs>
</svg>