<svg xmlns="http://www.w3.org/2000/svg" width="28" height="28" viewBox="0 0 28 28" fill="none">
  <path d="M11.6667 14C11.6667 13.3812 11.9125 12.7877 12.3501 12.3501C12.7877 11.9125 13.3812 11.6667 14 11.6667C14.6188 11.6667 15.2123 11.9125 15.6499 12.3501C16.0875 12.7877 16.3333 13.3812 16.3333 14C16.3333 14.6188 16.0875 15.2123 15.6499 15.6499C15.2123 16.0875 14.6188 16.3333 14 16.3333C13.3812 16.3333 12.7877 16.0875 12.3501 15.6499C11.9125 15.2123 11.6667 14.6188 11.6667 14ZM11.6667 21C11.6667 20.3812 11.9125 19.7877 12.3501 19.3501C12.7877 18.9125 13.3812 18.6667 14 18.6667C14.6188 18.6667 15.2123 18.9125 15.6499 19.3501C16.0875 19.7877 16.3333 20.3812 16.3333 21C16.3333 21.6188 16.0875 22.2123 15.6499 22.6499C15.2123 23.0875 14.6188 23.3333 14 23.3333C13.3812 23.3333 12.7877 23.0875 12.3501 22.6499C11.9125 22.2123 11.6667 21.6188 11.6667 21ZM11.6667 7.00001C11.6667 6.38117 11.9125 5.78768 12.3501 5.3501C12.7877 4.91251 13.3812 4.66668 14 4.66668C14.6188 4.66668 15.2123 4.91251 15.6499 5.3501C16.0875 5.78768 16.3333 6.38117 16.3333 7.00001C16.3333 7.61885 16.0875 8.21234 15.6499 8.64993C15.2123 9.08751 14.6188 9.33334 14 9.33334C13.3812 9.33334 12.7877 9.08751 12.3501 8.64993C11.9125 8.21234 11.6667 7.61885 11.6667 7.00001Z" fill="white"/>
</svg>